# xmcd
#
# Track frame offsets: 
#        150
#        26781
#        52657
#        89281
#        119015
#        173924
#        207638
#        242322
#        276526
#        308929
#
# Disc length: 4602 seconds
#
# Revision: 0
# Processed by: cddbd v1.5.2PL0 Copyright (c) Steve Scherf et al.
# Submitted via: ExactAudioCopy v1.0b3
#
DISCID=8d11f80a
DTITLE=Syntech - Best Of Vol. 2
DYEAR=2006
DGENRE=Electronic
TTITLE0=Pulse
TTITLE1=Byt&E
TTITLE2=St(art)
TTITLE3=Hi-Five
TTITLE4=Discontented
TTITLE5=Fun
TTITLE6=Mistery Invaders
TTITLE7=Forget
TTITLE8=Winds
TTITLE9=First Peace
EXTD=
EXTT0=
EXTT1=
EXTT2=
EXTT3=
EXTT4=
EXTT5=
EXTT6=
EXTT7=
EXTT8=
EXTT9=
PLAYORDER=
